<svg version="1.1" xmlns="http://www.w3.org/2000/svg" xmlns:xlink="http://www.w3.org/1999/xlink" width="689.94547" height="406.65341" viewBox="0,0,689.94547,406.65341"><g transform="translate(6.95472,38.88986)"><g data-paper-data="{&quot;isPaintingLayer&quot;:true}" fill-rule="nonzero" stroke-linecap="butt" stroke-linejoin="miter" stroke-miterlimit="10" stroke-dasharray="" stroke-dashoffset="0" style="mix-blend-mode: normal"><path d="M99.79039,178.73868v-35.37675h159.78521v35.37675z" data-paper-data="{&quot;index&quot;:null}" fill="#adadad" stroke="#868686" stroke-width="3.5"/><path d="M263.08309,253.51355v-109.97773h116.85133v109.97773z" data-paper-data="{&quot;index&quot;:null}" fill="#adadad" stroke="#868686" stroke-width="3.5"/><path d="M380.29042,296.23868v-35.37675h159.78521v35.37675z" data-paper-data="{&quot;index&quot;:null}" fill="#adadad" stroke="#868686" stroke-width="3.5"/><path d="M100.79039,295.73868v-35.37675h159.78521v35.37675z" data-paper-data="{&quot;index&quot;:null}" fill="#adadad" stroke="#868686" stroke-width="3.5"/><path d="M263.08309,366.01355v-109.97773h116.85133v109.97773z" data-paper-data="{&quot;index&quot;:null}" fill="#adadad" stroke="#868686" stroke-width="3.5"/><path d="M47.85017,278.63971l-0.00087,-6.80179l35.60936,-0.00457l0.00087,6.80179z" data-paper-data="{&quot;index&quot;:null}" fill="#d8b40c" stroke="#be9d0b" stroke-width="4"/><path d="M78.45866,282.03669l-0.00175,-13.60357l13.60357,-0.00175l0.00175,13.60357z" data-paper-data="{&quot;index&quot;:null}" fill="#d8b40c" stroke="#be9d0b" stroke-width="4"/><path d="M6.85017,278.6397l-0.00087,-6.80179l35.60936,-0.00457l0.00087,6.80179z" data-paper-data="{&quot;index&quot;:null}" fill="#d8b40c" stroke="#be9d0b" stroke-width="4"/><path d="M38.04804,282.04188l-0.00175,-13.60357l13.60357,-0.00175l0.00175,13.60357z" data-paper-data="{&quot;index&quot;:null}" fill="#d8b40c" stroke="#be9d0b" stroke-width="4"/><path d="M-2.95196,282.04187l-0.00175,-13.60357l13.60357,-0.00175l0.00175,13.60357z" data-paper-data="{&quot;index&quot;:null}" fill="#d8b40c" stroke="#be9d0b" stroke-width="4"/><path d="M-4.95272,280.0416l-0.00175,-13.60357l13.60357,-0.00175l0.00175,13.60357z" data-paper-data="{&quot;index&quot;:null}" fill="#d8b40c" stroke="#be9d0b" stroke-width="4"/><path d="M564.38941,72.83787v-109.97773h116.85133v109.97773z" data-paper-data="{&quot;index&quot;:null}" fill="#adadad" stroke="#868686" stroke-width="3.5"/></g></g></svg>