<svg version="1.1" xmlns="http://www.w3.org/2000/svg" xmlns:xlink="http://www.w3.org/1999/xlink" width="758.07123" height="428.08455" viewBox="0,0,758.07123,428.08455"><g transform="translate(62.44734,-13.30216)"><g data-paper-data="{&quot;isPaintingLayer&quot;:true}" fill-rule="nonzero" stroke-width="3.5" stroke-linecap="butt" stroke-linejoin="miter" stroke-miterlimit="10" stroke-dasharray="" stroke-dashoffset="0" style="mix-blend-mode: normal"><path d="M56.3295,364.13102v-109.97773h116.85133v109.97773z" data-paper-data="{&quot;index&quot;:null}" fill="#adadad" stroke="#868686"/><path d="M51.41978,359.22129v-109.97773h116.85133v109.97773z" data-paper-data="{&quot;index&quot;:null}" fill="#adadad" stroke="#868686"/><path d="M463.54894,434.50745l-35.37658,0.10858l-0.4904,-159.78446l35.37658,-0.10858z" data-paper-data="{&quot;index&quot;:null}" fill="#adadad" stroke="#868686"/><path d="M458.56432,439.52276l-35.37659,0.10858l-0.4904,-159.78446l35.37659,-0.10858z" data-paper-data="{&quot;index&quot;:null}" fill="#adadad" stroke="#868686"/><path d="M217.30269,434.50746l-35.37658,0.10858l-0.4904,-159.78446l35.37658,-0.10858z" data-paper-data="{&quot;index&quot;:null}" fill="#adadad" stroke="#868686"/><path d="M212.31807,439.52277l-35.37659,0.10858l-0.4904,-159.78446l35.37659,-0.10858z" data-paper-data="{&quot;index&quot;:null}" fill="#adadad" stroke="#868686"/><path d="M-55.78761,364.13703v-109.97773h116.85133v109.97773z" data-paper-data="{&quot;index&quot;:null}" fill="#adadad" stroke="#868686"/><path d="M-60.69734,359.2273v-109.97773h116.85133v109.97773z" data-paper-data="{&quot;index&quot;:null}" fill="#adadad" stroke="#868686"/><path d="M577.02257,364.13102v-109.97773h116.85133v109.97773z" data-paper-data="{&quot;index&quot;:null}" fill="#adadad" stroke="#868686"/><path d="M572.11283,359.22129v-109.97773h116.85133v109.97773z" data-paper-data="{&quot;index&quot;:null}" fill="#adadad" stroke="#868686"/><path d="M464.90543,364.13703v-109.97773h116.85133v109.97773z" data-paper-data="{&quot;index&quot;:null}" fill="#adadad" stroke="#868686"/><path d="M459.99572,359.2273v-109.97773h116.85133v109.97773z" data-paper-data="{&quot;index&quot;:null}" fill="#adadad" stroke="#868686"/><path d="M95.15241,203.92996c0,11.91964 -10.2478,21.58242 -22.8891,21.58242c-12.6413,0 -22.8891,-9.66278 -22.8891,-21.58242c0,-11.91964 10.2478,-21.58242 22.8891,-21.58242c12.6413,0 22.8891,9.66278 22.8891,21.58242z" data-paper-data="{&quot;index&quot;:null}" fill="#30b500" stroke="#2a9c00"/><path d="M91.43061,200.20815c0,11.91964 -10.2478,21.58242 -22.8891,21.58242c-12.6413,0 -22.8891,-9.66278 -22.8891,-21.58242c0,-11.91964 10.2478,-21.58242 22.8891,-21.58242c12.6413,0 22.8891,9.66278 22.8891,21.58242z" data-paper-data="{&quot;index&quot;:null}" fill="#30b500" stroke="#2a9c00"/><path d="M85.84791,200.20816c0,9.01242 -7.74833,16.31842 -17.30639,16.31842c-9.55805,0 -17.30639,-7.306 -17.30639,-16.31842c0,-9.01242 7.74833,-16.31842 17.30639,-16.31842c9.55805,0 17.30639,7.30601 17.30639,16.31842z" data-paper-data="{&quot;index&quot;:null}" fill="#2a9c00" stroke="#228100"/><path d="M81.62621,198.22319c0,7.84764 -6.74693,14.2094 -15.06968,14.2094c-8.32276,0 -15.06968,-6.36177 -15.06968,-14.2094c0,-7.84764 6.74693,-14.2094 15.06968,-14.2094c8.32276,0 15.06968,6.36177 15.06968,14.2094z" data-paper-data="{&quot;index&quot;:null}" fill="#2a9c00" stroke="#228100"/><path d="M95.15241,119.93147c0,11.91964 -10.2478,21.58242 -22.8891,21.58242c-12.6413,0 -22.8891,-9.66278 -22.8891,-21.58242c0,-11.91964 10.2478,-21.58242 22.8891,-21.58242c12.6413,0 22.8891,9.66278 22.8891,21.58242z" data-paper-data="{&quot;index&quot;:null}" fill="#30b500" stroke="#2a9c00"/><path d="M91.43061,116.20966c0,11.91964 -10.2478,21.58242 -22.8891,21.58242c-12.6413,0 -22.8891,-9.66278 -22.8891,-21.58242c0,-11.91964 10.2478,-21.58242 22.8891,-21.58242c12.6413,0 22.8891,9.66278 22.8891,21.58242z" data-paper-data="{&quot;index&quot;:null}" fill="#30b500" stroke="#2a9c00"/><path d="M85.84791,116.20967c0,9.01242 -7.74833,16.31842 -17.30639,16.31842c-9.55805,0 -17.30639,-7.306 -17.30639,-16.31842c0,-9.01242 7.74833,-16.31842 17.30639,-16.31842c9.55805,0 17.30639,7.30601 17.30639,16.31842z" data-paper-data="{&quot;index&quot;:null}" fill="#2a9c00" stroke="#228100"/><path d="M81.62621,114.2247c0,7.84764 -6.74693,14.2094 -15.06968,14.2094c-8.32276,0 -15.06968,-6.36177 -15.06968,-14.2094c0,-7.84764 6.74693,-14.2094 15.06968,-14.2094c8.32276,0 15.06968,6.36177 15.06968,14.2094z" data-paper-data="{&quot;index&quot;:null}" fill="#2a9c00" stroke="#228100"/><path d="M96.64941,40.35639c0,11.91964 -10.2478,21.58242 -22.8891,21.58242c-12.6413,0 -22.8891,-9.66278 -22.8891,-21.58242c0,-11.91964 10.2478,-21.58242 22.8891,-21.58242c12.6413,0 22.8891,9.66278 22.8891,21.58242z" data-paper-data="{&quot;index&quot;:null}" fill="#30b500" stroke="#2a9c00"/><path d="M92.9276,36.63458c0,11.91964 -10.2478,21.58242 -22.8891,21.58242c-12.6413,0 -22.8891,-9.66278 -22.8891,-21.58242c0,-11.91964 10.2478,-21.58242 22.8891,-21.58242c12.6413,0 22.8891,9.66278 22.8891,21.58242z" data-paper-data="{&quot;index&quot;:null}" fill="#30b500" stroke="#2a9c00"/><path d="M87.34489,36.63459c0,9.01242 -7.74833,16.31842 -17.30639,16.31842c-9.55805,0 -17.30639,-7.306 -17.30639,-16.31842c0,-9.01242 7.74833,-16.31842 17.30639,-16.31842c9.55805,0 17.30639,7.30601 17.30639,16.31842z" data-paper-data="{&quot;index&quot;:null}" fill="#2a9c00" stroke="#228100"/><path d="M83.1232,34.64962c0,7.84764 -6.74693,14.2094 -15.06968,14.2094c-8.32276,0 -15.06968,-6.36177 -15.06968,-14.2094c0,-7.84764 6.74693,-14.2094 15.06968,-14.2094c8.32276,0 15.06968,6.36177 15.06968,14.2094z" data-paper-data="{&quot;index&quot;:null}" fill="#2a9c00" stroke="#228100"/><path d="M592.85062,203.92996c0,11.91964 -10.2478,21.58242 -22.8891,21.58242c-12.6413,0 -22.8891,-9.66278 -22.8891,-21.58242c0,-11.91964 10.2478,-21.58242 22.8891,-21.58242c12.6413,0 22.8891,9.66278 22.8891,21.58242z" data-paper-data="{&quot;index&quot;:null}" fill="#30b500" stroke="#2a9c00"/><path d="M589.1288,200.20815c0,11.91964 -10.2478,21.58242 -22.8891,21.58242c-12.6413,0 -22.8891,-9.66278 -22.8891,-21.58242c0,-11.91964 10.2478,-21.58242 22.8891,-21.58242c12.6413,0 22.8891,9.66278 22.8891,21.58242z" data-paper-data="{&quot;index&quot;:null}" fill="#30b500" stroke="#2a9c00"/><path d="M583.54609,200.20816c0,9.01242 -7.74833,16.31842 -17.30639,16.31842c-9.55805,0 -17.30639,-7.306 -17.30639,-16.31842c0,-9.01242 7.74833,-16.31842 17.30639,-16.31842c9.55805,0 17.30639,7.30601 17.30639,16.31842z" data-paper-data="{&quot;index&quot;:null}" fill="#2a9c00" stroke="#228100"/><path d="M579.32442,198.22319c0,7.84764 -6.74693,14.2094 -15.06968,14.2094c-8.32276,0 -15.06968,-6.36177 -15.06968,-14.2094c0,-7.84764 6.74693,-14.2094 15.06968,-14.2094c8.32276,0 15.06968,6.36177 15.06968,14.2094z" data-paper-data="{&quot;index&quot;:null}" fill="#2a9c00" stroke="#228100"/><path d="M592.85062,119.93147c0,11.91964 -10.2478,21.58242 -22.8891,21.58242c-12.6413,0 -22.8891,-9.66278 -22.8891,-21.58242c0,-11.91964 10.2478,-21.58242 22.8891,-21.58242c12.6413,0 22.8891,9.66278 22.8891,21.58242z" data-paper-data="{&quot;index&quot;:null}" fill="#30b500" stroke="#2a9c00"/><path d="M589.1288,116.20966c0,11.91964 -10.2478,21.58242 -22.8891,21.58242c-12.6413,0 -22.8891,-9.66278 -22.8891,-21.58242c0,-11.91964 10.2478,-21.58242 22.8891,-21.58242c12.6413,0 22.8891,9.66278 22.8891,21.58242z" data-paper-data="{&quot;index&quot;:null}" fill="#30b500" stroke="#2a9c00"/><path d="M583.54609,116.20967c0,9.01242 -7.74833,16.31842 -17.30639,16.31842c-9.55805,0 -17.30639,-7.306 -17.30639,-16.31842c0,-9.01242 7.74833,-16.31842 17.30639,-16.31842c9.55805,0 17.30639,7.30601 17.30639,16.31842z" data-paper-data="{&quot;index&quot;:null}" fill="#2a9c00" stroke="#228100"/><path d="M579.32442,114.2247c0,7.84764 -6.74693,14.2094 -15.06968,14.2094c-8.32276,0 -15.06968,-6.36177 -15.06968,-14.2094c0,-7.84764 6.74693,-14.2094 15.06968,-14.2094c8.32276,0 15.06968,6.36177 15.06968,14.2094z" data-paper-data="{&quot;index&quot;:null}" fill="#2a9c00" stroke="#228100"/><path d="M594.34761,40.35639c0,11.91964 -10.2478,21.58242 -22.8891,21.58242c-12.6413,0 -22.8891,-9.66278 -22.8891,-21.58242c0,-11.91964 10.2478,-21.58242 22.8891,-21.58242c12.6413,0 22.8891,9.66278 22.8891,21.58242z" data-paper-data="{&quot;index&quot;:null}" fill="#30b500" stroke="#2a9c00"/><path d="M590.62582,36.63458c0,11.91964 -10.2478,21.58242 -22.8891,21.58242c-12.6413,0 -22.8891,-9.66278 -22.8891,-21.58242c0,-11.91964 10.2478,-21.58242 22.8891,-21.58242c12.6413,0 22.8891,9.66278 22.8891,21.58242z" data-paper-data="{&quot;index&quot;:null}" fill="#30b500" stroke="#2a9c00"/><path d="M585.04311,36.63459c0,9.01242 -7.74833,16.31842 -17.30639,16.31842c-9.55805,0 -17.30639,-7.306 -17.30639,-16.31842c0,-9.01242 7.74833,-16.31842 17.30639,-16.31842c9.55805,0 17.30639,7.30601 17.30639,16.31842z" data-paper-data="{&quot;index&quot;:null}" fill="#2a9c00" stroke="#228100"/><path d="M580.82143,34.64962c0,7.84764 -6.74693,14.2094 -15.06968,14.2094c-8.32276,0 -15.06968,-6.36177 -15.06968,-14.2094c0,-7.84764 6.74693,-14.2094 15.06968,-14.2094c8.32276,0 15.06968,6.36177 15.06968,14.2094z" data-paper-data="{&quot;index&quot;:null}" fill="#2a9c00" stroke="#228100"/></g></g></svg>