<svg version="1.1" xmlns="http://www.w3.org/2000/svg" xmlns:xlink="http://www.w3.org/1999/xlink" width="689.94546" height="411.56314" viewBox="0,0,689.94546,411.56314"><g transform="translate(43.93682,4.19373)"><g data-paper-data="{&quot;isPaintingLayer&quot;:true}" fill-rule="nonzero" stroke-linecap="butt" stroke-linejoin="miter" stroke-miterlimit="10" stroke-dasharray="" stroke-dashoffset="0" style="mix-blend-mode: normal"><path d="M384.4783,225.2079v-35.37675h159.78521v35.37675z" fill="#adadad" stroke="#868686" stroke-width="3.5"/><path d="M379.47832,220.2079v-35.37676h159.78521v35.37676z" fill="#adadad" stroke="#868686" stroke-width="3.5"/><path d="M103.97828,107.7079v-35.37675h159.78521v35.37675z" fill="#adadad" stroke="#868686" stroke-width="3.5"/><path d="M98.97828,102.7079v-35.37676h159.78521v35.37676z" fill="#adadad" stroke="#868686" stroke-width="3.5"/><path d="M383.4783,108.2079v-35.37675h159.78521v35.37675z" fill="#adadad" stroke="#868686" stroke-width="3.5"/><path d="M378.47832,103.2079v-35.37676h159.78521v35.37676z" fill="#adadad" stroke="#868686" stroke-width="3.5"/><path d="M264.02921,112.44373v-109.97773h116.85133v109.97773z" fill="#adadad" stroke="#868686" stroke-width="3.5"/><path d="M259.11949,107.534v-109.97773h116.85133v109.97773z" fill="#adadad" stroke="#868686" stroke-width="3.5"/><path d="M264.02921,224.94373v-109.97773h116.85133v109.97773z" fill="#adadad" stroke="#868686" stroke-width="3.5"/><path d="M259.11949,220.034v-109.97773h116.85133v109.97773z" fill="#adadad" stroke="#868686" stroke-width="3.5"/><path d="M599.79633,93.73656l-0.00087,-6.80179l35.60936,-0.00457l0.00087,6.80179z" data-paper-data="{&quot;index&quot;:null}" fill="#d8b40c" stroke="#be9d0b" stroke-width="4"/><path d="M630.40481,97.13354l-0.00175,-13.60357l13.60357,-0.00175l0.00175,13.60357z" data-paper-data="{&quot;index&quot;:null}" fill="#d8b40c" stroke="#be9d0b" stroke-width="4"/><path d="M589.99419,97.13873l-0.00175,-13.60357l13.60357,-0.00175l0.00175,13.60357z" data-paper-data="{&quot;index&quot;:null}" fill="#d8b40c" stroke="#be9d0b" stroke-width="4"/><path d="M597.79557,91.7363l-0.00087,-6.80179l35.60936,-0.00457l0.00087,6.80179z" data-paper-data="{&quot;index&quot;:null}" fill="#d8b40c" stroke="#be9d0b" stroke-width="4"/><path d="M628.40404,95.13327l-0.00175,-13.60357l13.60357,-0.00175l0.00175,13.60357z" data-paper-data="{&quot;index&quot;:null}" fill="#d8b40c" stroke="#be9d0b" stroke-width="4"/><path d="M587.99343,95.13846l-0.00175,-13.60357l13.60357,-0.00175l0.00175,13.60357z" data-paper-data="{&quot;index&quot;:null}" fill="#d8b40c" stroke="#be9d0b" stroke-width="4"/><path d="M558.79633,93.73655l-0.00087,-6.80179l35.60936,-0.00457l0.00087,6.80179z" data-paper-data="{&quot;index&quot;:null}" fill="#d8b40c" stroke="#be9d0b" stroke-width="4"/><path d="M589.40481,97.46686l-0.00175,-13.60357l13.60357,-0.00175l0.00175,13.60357z" data-paper-data="{&quot;index&quot;:null}" fill="#d8b40c" stroke="#be9d0b" stroke-width="4"/><path d="M548.99419,97.13872l-0.00175,-13.60357l13.60357,-0.00175l0.00175,13.60357z" data-paper-data="{&quot;index&quot;:null}" fill="#d8b40c" stroke="#be9d0b" stroke-width="4"/><path d="M556.79557,91.7363l-0.00087,-6.80179l35.60936,-0.00457l0.00087,6.80179z" data-paper-data="{&quot;index&quot;:null}" fill="#d8b40c" stroke="#be9d0b" stroke-width="4"/><path d="M587.40404,95.79992l-0.00175,-13.60357l13.60357,-0.00175l0.00175,13.60357z" data-paper-data="{&quot;index&quot;:null}" fill="#d8b40c" stroke="#be9d0b" stroke-width="4"/><path d="M560.597,81.8633l-0.00175,13.60357l-13.60357,-0.00175l0.00175,-13.60357z" data-paper-data="{&quot;index&quot;:null}" fill="#d8b40c" stroke="#be9d0b" stroke-width="4"/><path d="M-37.2771,405.61941v-109.97773h116.85133v109.97773z" fill="#adadad" stroke="#868686" stroke-width="3.5"/><path d="M-42.18682,400.70968v-109.97773h116.85133v109.97773z" fill="#adadad" stroke="#868686" stroke-width="3.5"/></g></g></svg>