<svg version="1.1" xmlns="http://www.w3.org/2000/svg" xmlns:xlink="http://www.w3.org/1999/xlink" width="758.07122" height="428.08455" viewBox="0,0,758.07122,428.08455"><g transform="translate(62.44734,81.38671)"><g data-paper-data="{&quot;isPaintingLayer&quot;:true}" fill-rule="nonzero" stroke-width="3.5" stroke-linecap="butt" stroke-linejoin="miter" stroke-miterlimit="10" stroke-dasharray="" stroke-dashoffset="0" style="mix-blend-mode: normal"><path d="M56.3295,110.75644v-109.97773h116.85133v109.97773z" data-paper-data="{&quot;index&quot;:null}" fill="#adadad" stroke="#868686"/><path d="M51.41978,105.84671v-109.97773h116.85133v109.97773z" data-paper-data="{&quot;index&quot;:null}" fill="#adadad" stroke="#868686"/><path d="M463.54893,80.15312l-35.37658,0.10858l-0.4904,-159.78446l35.37658,-0.10858z" data-paper-data="{&quot;index&quot;:null}" fill="#adadad" stroke="#868686"/><path d="M458.5643,85.16843l-35.37659,0.10858l-0.4904,-159.78446l35.37659,-0.10858z" data-paper-data="{&quot;index&quot;:null}" fill="#adadad" stroke="#868686"/><path d="M217.30269,80.15311l-35.37658,0.10858l-0.4904,-159.78446l35.37658,-0.10858z" fill="#adadad" stroke="#868686"/><path d="M212.31806,85.16842l-35.37659,0.10858l-0.4904,-159.78446l35.37659,-0.10858z" fill="#adadad" stroke="#868686"/><path d="M-55.78762,110.75043v-109.97773h116.85133v109.97773z" data-paper-data="{&quot;index&quot;:null}" fill="#adadad" stroke="#868686"/><path d="M-60.69734,105.8407v-109.97773h116.85133v109.97773z" data-paper-data="{&quot;index&quot;:null}" fill="#adadad" stroke="#868686"/><path d="M577.02255,110.75644v-109.97773h116.85133v109.97773z" data-paper-data="{&quot;index&quot;:null}" fill="#adadad" stroke="#868686"/><path d="M572.11283,105.84671v-109.97773h116.85133v109.97773z" data-paper-data="{&quot;index&quot;:null}" fill="#adadad" stroke="#868686"/><path d="M464.90543,110.75043v-109.97773h116.85133v109.97773z" data-paper-data="{&quot;index&quot;:null}" fill="#adadad" stroke="#868686"/><path d="M459.99571,105.8407v-109.97773h116.85133v109.97773z" data-paper-data="{&quot;index&quot;:null}" fill="#adadad" stroke="#868686"/><path d="M95.1524,159.79185c0,11.91964 -10.2478,21.58242 -22.8891,21.58242c-12.6413,0 -22.8891,-9.66278 -22.8891,-21.58242c0,-11.91964 10.2478,-21.58242 22.8891,-21.58242c12.6413,0 22.8891,9.66278 22.8891,21.58242z" data-paper-data="{&quot;index&quot;:null}" fill="#30b500" stroke="#2a9c00"/><path d="M91.4306,156.07004c0,11.91964 -10.2478,21.58242 -22.8891,21.58242c-12.6413,0 -22.8891,-9.66278 -22.8891,-21.58242c0,-11.91964 10.2478,-21.58242 22.8891,-21.58242c12.6413,0 22.8891,9.66278 22.8891,21.58242z" data-paper-data="{&quot;index&quot;:null}" fill="#30b500" stroke="#2a9c00"/><path d="M85.84789,156.07005c0,9.01242 -7.74833,16.31842 -17.30639,16.31842c-9.55805,0 -17.30639,-7.306 -17.30639,-16.31842c0,-9.01242 7.74833,-16.31842 17.30639,-16.31842c9.55805,0 17.30639,7.30601 17.30639,16.31842z" data-paper-data="{&quot;index&quot;:null}" fill="#2a9c00" stroke="#228100"/><path d="M81.62621,154.08508c0,7.84764 -6.74693,14.2094 -15.06968,14.2094c-8.32276,0 -15.06968,-6.36177 -15.06968,-14.2094c0,-7.84764 6.74693,-14.2094 15.06968,-14.2094c8.32276,0 15.06968,6.36177 15.06968,14.2094z" data-paper-data="{&quot;index&quot;:null}" fill="#2a9c00" stroke="#228100"/><path d="M95.1524,243.79034c0,11.91964 -10.2478,21.58242 -22.8891,21.58242c-12.6413,0 -22.8891,-9.66278 -22.8891,-21.58242c0,-11.91964 10.2478,-21.58242 22.8891,-21.58242c12.6413,0 22.8891,9.66278 22.8891,21.58242z" data-paper-data="{&quot;index&quot;:null}" fill="#30b500" stroke="#2a9c00"/><path d="M91.4306,240.06853c0,11.91964 -10.2478,21.58242 -22.8891,21.58242c-12.6413,0 -22.8891,-9.66278 -22.8891,-21.58242c0,-11.91964 10.2478,-21.58242 22.8891,-21.58242c12.6413,0 22.8891,9.66278 22.8891,21.58242z" data-paper-data="{&quot;index&quot;:null}" fill="#30b500" stroke="#2a9c00"/><path d="M85.84789,240.06854c0,9.01242 -7.74833,16.31842 -17.30639,16.31842c-9.55805,0 -17.30639,-7.306 -17.30639,-16.31842c0,-9.01242 7.74833,-16.31842 17.30639,-16.31842c9.55805,0 17.30639,7.30601 17.30639,16.31842z" data-paper-data="{&quot;index&quot;:null}" fill="#2a9c00" stroke="#228100"/><path d="M81.62621,238.08357c0,7.84764 -6.74693,14.2094 -15.06968,14.2094c-8.32276,0 -15.06968,-6.36177 -15.06968,-14.2094c0,-7.84764 6.74693,-14.2094 15.06968,-14.2094c8.32276,0 15.06968,6.36177 15.06968,14.2094z" data-paper-data="{&quot;index&quot;:null}" fill="#2a9c00" stroke="#228100"/><path d="M96.6494,323.36542c0,11.91964 -10.2478,21.58242 -22.8891,21.58242c-12.6413,0 -22.8891,-9.66278 -22.8891,-21.58242c0,-11.91964 10.2478,-21.58242 22.8891,-21.58242c12.6413,0 22.8891,9.66278 22.8891,21.58242z" data-paper-data="{&quot;index&quot;:null}" fill="#30b500" stroke="#2a9c00"/><path d="M92.9276,319.64361c0,11.91964 -10.2478,21.58242 -22.8891,21.58242c-12.6413,0 -22.8891,-9.66278 -22.8891,-21.58242c0,-11.91964 10.2478,-21.58242 22.8891,-21.58242c12.6413,0 22.8891,9.66278 22.8891,21.58242z" data-paper-data="{&quot;index&quot;:null}" fill="#30b500" stroke="#2a9c00"/><path d="M87.34489,319.64362c0,9.01242 -7.74833,16.31842 -17.30639,16.31842c-9.55805,0 -17.30639,-7.306 -17.30639,-16.31842c0,-9.01242 7.74833,-16.31842 17.30639,-16.31842c9.55805,0 17.30639,7.30601 17.30639,16.31842z" data-paper-data="{&quot;index&quot;:null}" fill="#2a9c00" stroke="#228100"/><path d="M83.12321,317.65865c0,7.84764 -6.74693,14.2094 -15.06968,14.2094c-8.32276,0 -15.06968,-6.36177 -15.06968,-14.2094c0,-7.84764 6.74693,-14.2094 15.06968,-14.2094c8.32276,0 15.06968,6.36177 15.06968,14.2094z" data-paper-data="{&quot;index&quot;:null}" fill="#2a9c00" stroke="#228100"/><path d="M592.85061,159.79185c0,11.91964 -10.2478,21.58242 -22.8891,21.58242c-12.6413,0 -22.8891,-9.66278 -22.8891,-21.58242c0,-11.91964 10.2478,-21.58242 22.8891,-21.58242c12.6413,0 22.8891,9.66278 22.8891,21.58242z" data-paper-data="{&quot;index&quot;:null}" fill="#30b500" stroke="#2a9c00"/><path d="M589.12881,156.07004c0,11.91964 -10.2478,21.58242 -22.8891,21.58242c-12.6413,0 -22.8891,-9.66278 -22.8891,-21.58242c0,-11.91964 10.2478,-21.58242 22.8891,-21.58242c12.6413,0 22.8891,9.66278 22.8891,21.58242z" data-paper-data="{&quot;index&quot;:null}" fill="#30b500" stroke="#2a9c00"/><path d="M583.5461,156.07005c0,9.01242 -7.74833,16.31842 -17.30639,16.31842c-9.55805,0 -17.30639,-7.306 -17.30639,-16.31842c0,-9.01242 7.74833,-16.31842 17.30639,-16.31842c9.55805,0 17.30639,7.30601 17.30639,16.31842z" data-paper-data="{&quot;index&quot;:null}" fill="#2a9c00" stroke="#228100"/><path d="M579.32442,154.08508c0,7.84764 -6.74693,14.2094 -15.06968,14.2094c-8.32276,0 -15.06968,-6.36177 -15.06968,-14.2094c0,-7.84764 6.74693,-14.2094 15.06968,-14.2094c8.32276,0 15.06968,6.36177 15.06968,14.2094z" data-paper-data="{&quot;index&quot;:null}" fill="#2a9c00" stroke="#228100"/><path d="M592.85061,243.79034c0,11.91964 -10.2478,21.58242 -22.8891,21.58242c-12.6413,0 -22.8891,-9.66278 -22.8891,-21.58242c0,-11.91964 10.2478,-21.58242 22.8891,-21.58242c12.6413,0 22.8891,9.66278 22.8891,21.58242z" data-paper-data="{&quot;index&quot;:null}" fill="#30b500" stroke="#2a9c00"/><path d="M589.12881,240.06853c0,11.91964 -10.2478,21.58242 -22.8891,21.58242c-12.6413,0 -22.8891,-9.66278 -22.8891,-21.58242c0,-11.91964 10.2478,-21.58242 22.8891,-21.58242c12.6413,0 22.8891,9.66278 22.8891,21.58242z" data-paper-data="{&quot;index&quot;:null}" fill="#30b500" stroke="#2a9c00"/><path d="M583.5461,240.06854c0,9.01242 -7.74833,16.31842 -17.30639,16.31842c-9.55805,0 -17.30639,-7.306 -17.30639,-16.31842c0,-9.01242 7.74833,-16.31842 17.30639,-16.31842c9.55805,0 17.30639,7.30601 17.30639,16.31842z" data-paper-data="{&quot;index&quot;:null}" fill="#2a9c00" stroke="#228100"/><path d="M579.32442,238.08357c0,7.84764 -6.74693,14.2094 -15.06968,14.2094c-8.32276,0 -15.06968,-6.36177 -15.06968,-14.2094c0,-7.84764 6.74693,-14.2094 15.06968,-14.2094c8.32276,0 15.06968,6.36177 15.06968,14.2094z" data-paper-data="{&quot;index&quot;:null}" fill="#2a9c00" stroke="#228100"/><path d="M594.34761,323.36542c0,11.91964 -10.2478,21.58242 -22.8891,21.58242c-12.6413,0 -22.8891,-9.66278 -22.8891,-21.58242c0,-11.91964 10.2478,-21.58242 22.8891,-21.58242c12.6413,0 22.8891,9.66278 22.8891,21.58242z" data-paper-data="{&quot;index&quot;:null}" fill="#30b500" stroke="#2a9c00"/><path d="M590.62581,319.64361c0,11.91964 -10.2478,21.58242 -22.8891,21.58242c-12.6413,0 -22.8891,-9.66278 -22.8891,-21.58242c0,-11.91964 10.2478,-21.58242 22.8891,-21.58242c12.6413,0 22.8891,9.66278 22.8891,21.58242z" data-paper-data="{&quot;index&quot;:null}" fill="#30b500" stroke="#2a9c00"/><path d="M585.0431,319.64362c0,9.01242 -7.74833,16.31842 -17.30639,16.31842c-9.55805,0 -17.30639,-7.306 -17.30639,-16.31842c0,-9.01242 7.74833,-16.31842 17.30639,-16.31842c9.55805,0 17.30639,7.30601 17.30639,16.31842z" data-paper-data="{&quot;index&quot;:null}" fill="#2a9c00" stroke="#228100"/><path d="M580.82142,317.65865c0,7.84764 -6.74693,14.2094 -15.06968,14.2094c-8.32276,0 -15.06968,-6.36177 -15.06968,-14.2094c0,-7.84764 6.74693,-14.2094 15.06968,-14.2094c8.32276,0 15.06968,6.36177 15.06968,14.2094z" data-paper-data="{&quot;index&quot;:null}" fill="#2a9c00" stroke="#228100"/></g></g></svg>