<svg version="1.1" xmlns="http://www.w3.org/2000/svg" xmlns:xlink="http://www.w3.org/1999/xlink" width="685.03574" height="406.65341" viewBox="0,0,685.03574,406.65341"><g transform="translate(39.58252,-0.14918)"><g data-paper-data="{&quot;isPaintingLayer&quot;:true}" fill-rule="nonzero" stroke-linecap="butt" stroke-linejoin="miter" stroke-miterlimit="10" stroke-dasharray="" stroke-dashoffset="0" style="mix-blend-mode: normal"><path d="M558.24091,93.16973l-0.00087,-6.80179l35.60936,-0.00457l0.00087,6.80179z" data-paper-data="{&quot;index&quot;:null}" fill="#d8b40c" stroke="#be9d0b" stroke-width="4"/><path d="M383.92288,224.64108v-35.37675h159.78521v35.37675z" fill="#adadad" stroke="#868686" stroke-width="3.5"/><path d="M103.42286,107.14108v-35.37675h159.78521v35.37675z" fill="#adadad" stroke="#868686" stroke-width="3.5"/><path d="M382.92288,107.64108v-35.37675h159.78521v35.37675z" fill="#adadad" stroke="#868686" stroke-width="3.5"/><path d="M263.47379,111.87691v-109.97773h116.85133v109.97773z" fill="#adadad" stroke="#868686" stroke-width="3.5"/><path d="M263.47379,224.37691v-109.97773h116.85133v109.97773z" fill="#adadad" stroke="#868686" stroke-width="3.5"/><path d="M599.24091,93.16974l-0.00087,-6.80179l35.60936,-0.00457l0.00087,6.80179z" data-paper-data="{&quot;index&quot;:null}" fill="#d8b40c" stroke="#be9d0b" stroke-width="4"/><path d="M629.84939,96.56672l-0.00175,-13.60357l13.60357,-0.00175l0.00175,13.60357z" data-paper-data="{&quot;index&quot;:null}" fill="#d8b40c" stroke="#be9d0b" stroke-width="4"/><path d="M589.43877,96.57191l-0.00175,-13.60357l13.60357,-0.00175l0.00175,13.60357z" data-paper-data="{&quot;index&quot;:null}" fill="#d8b40c" stroke="#be9d0b" stroke-width="4"/><path d="M587.43801,94.57164l-0.00175,-13.60357l13.60357,-0.00175l0.00175,13.60357z" data-paper-data="{&quot;index&quot;:null}" fill="#d8b40c" stroke="#be9d0b" stroke-width="4"/><path d="M548.43877,96.5719l-0.00175,-13.60357l13.60357,-0.00175l0.00175,13.60357z" data-paper-data="{&quot;index&quot;:null}" fill="#d8b40c" stroke="#be9d0b" stroke-width="4"/><path d="M-37.83252,405.05259v-109.97773h116.85133v109.97773z" fill="#adadad" stroke="#868686" stroke-width="3.5"/></g></g></svg>