<svg version="1.1" xmlns="http://www.w3.org/2000/svg" xmlns:xlink="http://www.w3.org/1999/xlink" width="753.1615" height="419.34743" viewBox="0,0,753.1615,419.34743"><g transform="translate(57.5376,-17.02397)"><g data-paper-data="{&quot;isPaintingLayer&quot;:true}" fill-rule="nonzero" stroke-width="3.5" stroke-linecap="butt" stroke-linejoin="miter" stroke-miterlimit="10" stroke-dasharray="" stroke-dashoffset="0" style="mix-blend-mode: normal"><path d="M56.32951,364.13102v-109.97773h116.85133v109.97773z" data-paper-data="{&quot;index&quot;:null}" fill="#adadad" stroke="#868686"/><path d="M463.54896,434.50745l-35.37658,0.10858l-0.4904,-159.78446l35.37658,-0.10858z" data-paper-data="{&quot;index&quot;:null}" fill="#adadad" stroke="#868686"/><path d="M217.30271,434.50746l-35.37658,0.10858l-0.4904,-159.78446l35.37658,-0.10858z" data-paper-data="{&quot;index&quot;:null}" fill="#adadad" stroke="#868686"/><path d="M-55.7876,364.13703v-109.97773h116.85133v109.97773z" data-paper-data="{&quot;index&quot;:null}" fill="#adadad" stroke="#868686"/><path d="M577.02257,364.13102v-109.97773h116.85133v109.97773z" data-paper-data="{&quot;index&quot;:null}" fill="#adadad" stroke="#868686"/><path d="M464.90544,364.13703v-109.97773h116.85133v109.97773z" data-paper-data="{&quot;index&quot;:null}" fill="#adadad" stroke="#868686"/><path d="M95.15243,203.92996c0,11.91964 -10.2478,21.58242 -22.8891,21.58242c-12.6413,0 -22.8891,-9.66278 -22.8891,-21.58242c0,-11.91964 10.2478,-21.58242 22.8891,-21.58242c12.6413,0 22.8891,9.66278 22.8891,21.58242z" data-paper-data="{&quot;index&quot;:null}" fill="#30b500" stroke="#2a9c00"/><path d="M95.15243,119.93147c0,11.91964 -10.2478,21.58242 -22.8891,21.58242c-12.6413,0 -22.8891,-9.66278 -22.8891,-21.58242c0,-11.91964 10.2478,-21.58242 22.8891,-21.58242c12.6413,0 22.8891,9.66278 22.8891,21.58242z" data-paper-data="{&quot;index&quot;:null}" fill="#30b500" stroke="#2a9c00"/><path d="M96.64943,40.35639c0,11.91964 -10.2478,21.58242 -22.8891,21.58242c-12.6413,0 -22.8891,-9.66278 -22.8891,-21.58242c0,-11.91964 10.2478,-21.58242 22.8891,-21.58242c12.6413,0 22.8891,9.66278 22.8891,21.58242z" data-paper-data="{&quot;index&quot;:null}" fill="#30b500" stroke="#2a9c00"/><path d="M592.85064,203.92996c0,11.91964 -10.2478,21.58242 -22.8891,21.58242c-12.6413,0 -22.8891,-9.66278 -22.8891,-21.58242c0,-11.91964 10.2478,-21.58242 22.8891,-21.58242c12.6413,0 22.8891,9.66278 22.8891,21.58242z" data-paper-data="{&quot;index&quot;:null}" fill="#30b500" stroke="#2a9c00"/><path d="M592.85064,119.93147c0,11.91964 -10.2478,21.58242 -22.8891,21.58242c-12.6413,0 -22.8891,-9.66278 -22.8891,-21.58242c0,-11.91964 10.2478,-21.58242 22.8891,-21.58242c12.6413,0 22.8891,9.66278 22.8891,21.58242z" data-paper-data="{&quot;index&quot;:null}" fill="#30b500" stroke="#2a9c00"/><path d="M594.34762,40.35639c0,11.91964 -10.2478,21.58242 -22.8891,21.58242c-12.6413,0 -22.8891,-9.66278 -22.8891,-21.58242c0,-11.91964 10.2478,-21.58242 22.8891,-21.58242c12.6413,0 22.8891,9.66278 22.8891,21.58242z" data-paper-data="{&quot;index&quot;:null}" fill="#30b500" stroke="#2a9c00"/></g></g></svg>