<svg version="1.1" xmlns="http://www.w3.org/2000/svg" xmlns:xlink="http://www.w3.org/1999/xlink" width="161.84345" height="156.7326" viewBox="0,0,161.84345,156.7326"><defs><radialGradient cx="320" cy="180" r="80.92172" gradientUnits="userSpaceOnUse" id="color-1"><stop offset="0" stop-color="#66ffc8"/><stop offset="1" stop-color="#66ffc8" stop-opacity="0"/></radialGradient></defs><g transform="translate(-239.07828,-101.6337)"><g data-paper-data="{&quot;isPaintingLayer&quot;:true}" fill-rule="nonzero" stroke-linejoin="miter" stroke-miterlimit="10" stroke-dasharray="" stroke-dashoffset="0" style="mix-blend-mode: normal"><path d="M306.5627,239.4375v-97h27.08257v97z" data-paper-data="{&quot;index&quot;:null}" fill="#51cb9e" stroke="none" stroke-width="0" stroke-linecap="butt"/><path d="M266.09308,195.60419l53.48051,-58" data-paper-data="{&quot;index&quot;:null}" fill="none" stroke="#52cda0" stroke-width="15" stroke-linecap="round"/><path d="M372.90692,195.60419l-53.48051,-58" data-paper-data="{&quot;index&quot;:null}" fill="none" stroke="#51cb9e" stroke-width="15" stroke-linecap="round"/><path d="M306.5627,232.9375v-97h27.08257v97z" data-paper-data="{&quot;index&quot;:null}" fill="#66ffc8" stroke="none" stroke-width="0" stroke-linecap="butt"/><path d="M324.62641,134.92109l53.28051,57.7831" data-paper-data="{&quot;index&quot;:null}" fill="none" stroke="#66ffc8" stroke-width="15" stroke-linecap="round"/><path d="M315.37359,134.92109l-53.28051,57.7831" data-paper-data="{&quot;index&quot;:null}" fill="none" stroke="#66ffc8" stroke-width="15" stroke-linecap="round"/><path d="M329.42898,130.4375c0,1.86396 -4.19733,3.375 -9.375,3.375c-5.17767,0 -9.375,-1.51104 -9.375,-3.375c0,-1.86396 4.19733,-3.375 9.375,-3.375c5.17767,0 9.375,1.51104 9.375,3.375z" fill="#66ffc8" stroke="none" stroke-width="15" stroke-linecap="butt"/><path d="M400.92172,180c0,43.28051 -36.22989,78.3663 -80.92172,78.3663c-44.69183,0 -80.92172,-35.08579 -80.92172,-78.3663c0,-43.28051 36.22989,-78.3663 80.92172,-78.3663c44.69183,0 80.92172,35.08579 80.92172,78.3663z" fill="url(#color-1)" stroke="none" stroke-width="0" stroke-linecap="butt"/></g></g></svg>