<svg version="1.1" xmlns="http://www.w3.org/2000/svg" xmlns:xlink="http://www.w3.org/1999/xlink" width="53" height="50.38665" viewBox="0,0,53,50.38665"><g transform="translate(-293.5,-154.80667)"><g data-paper-data="{&quot;isPaintingLayer&quot;:true}" fill-rule="nonzero" stroke-width="3.5" stroke-linecap="butt" stroke-linejoin="miter" stroke-miterlimit="10" stroke-dasharray="" stroke-dashoffset="0" style="mix-blend-mode: normal"><path d="M344.75,181.86091c0,11.91964 -10.2478,21.58242 -22.8891,21.58242c-12.6413,0 -22.8891,-9.66278 -22.8891,-21.58242c0,-11.91964 10.2478,-21.58242 22.8891,-21.58242c12.6413,0 22.8891,9.66278 22.8891,21.58242z" data-paper-data="{&quot;index&quot;:null}" fill="#30b500" stroke="#2a9c00"/><path d="M341.0282,178.1391c0,11.91964 -10.2478,21.58242 -22.8891,21.58242c-12.6413,0 -22.8891,-9.66278 -22.8891,-21.58242c0,-11.91964 10.2478,-21.58242 22.8891,-21.58242c12.6413,0 22.8891,9.66278 22.8891,21.58242z" data-paper-data="{&quot;index&quot;:null}" fill="#30b500" stroke="#2a9c00"/><path d="M335.44549,178.13911c0,9.01242 -7.74833,16.31842 -17.30639,16.31842c-9.55805,0 -17.30639,-7.306 -17.30639,-16.31842c0,-9.01242 7.74833,-16.31842 17.30639,-16.31842c9.55805,0 17.30639,7.30601 17.30639,16.31842z" data-paper-data="{&quot;index&quot;:null}" fill="#2a9c00" stroke="#228100"/><path d="M331.22381,176.15414c0,7.84764 -6.74693,14.2094 -15.06968,14.2094c-8.32276,0 -15.06968,-6.36177 -15.06968,-14.2094c0,-7.84764 6.74693,-14.2094 15.06968,-14.2094c8.32276,0 15.06968,6.36177 15.06968,14.2094z" data-paper-data="{&quot;index&quot;:null}" fill="#2a9c00" stroke="#228100"/></g></g></svg>