<svg version="1.1" xmlns="http://www.w3.org/2000/svg" xmlns:xlink="http://www.w3.org/1999/xlink" width="753.1615" height="428.08455" viewBox="0,0,753.1615,428.08455"><g transform="translate(57.53762,81.38672)"><g data-paper-data="{&quot;isPaintingLayer&quot;:true}" fill-rule="nonzero" stroke-width="3.5" stroke-linecap="butt" stroke-linejoin="miter" stroke-miterlimit="10" stroke-dasharray="" stroke-dashoffset="0" style="mix-blend-mode: normal"><path d="M56.3295,110.75644v-109.97773h116.85133v109.97773z" data-paper-data="{&quot;index&quot;:null}" fill="#adadad" stroke="#868686"/><path d="M463.54893,80.15312l-35.37658,0.10858l-0.4904,-159.78446l35.37658,-0.10858z" data-paper-data="{&quot;index&quot;:null}" fill="#adadad" stroke="#868686"/><path d="M217.30269,80.15311l-35.37658,0.10858l-0.4904,-159.78446l35.37658,-0.10858z" fill="#adadad" stroke="#868686"/><path d="M-55.78762,110.75043v-109.97773h116.85133v109.97773z" data-paper-data="{&quot;index&quot;:null}" fill="#adadad" stroke="#868686"/><path d="M577.02255,110.75644v-109.97773h116.85133v109.97773z" data-paper-data="{&quot;index&quot;:null}" fill="#adadad" stroke="#868686"/><path d="M464.90543,110.75043v-109.97773h116.85133v109.97773z" data-paper-data="{&quot;index&quot;:null}" fill="#adadad" stroke="#868686"/><path d="M95.1524,159.79185c0,11.91964 -10.2478,21.58242 -22.8891,21.58242c-12.6413,0 -22.8891,-9.66278 -22.8891,-21.58242c0,-11.91964 10.2478,-21.58242 22.8891,-21.58242c12.6413,0 22.8891,9.66278 22.8891,21.58242z" data-paper-data="{&quot;index&quot;:null}" fill="#30b500" stroke="#2a9c00"/><path d="M95.1524,243.79034c0,11.91964 -10.2478,21.58242 -22.8891,21.58242c-12.6413,0 -22.8891,-9.66278 -22.8891,-21.58242c0,-11.91964 10.2478,-21.58242 22.8891,-21.58242c12.6413,0 22.8891,9.66278 22.8891,21.58242z" data-paper-data="{&quot;index&quot;:null}" fill="#30b500" stroke="#2a9c00"/><path d="M96.6494,323.36542c0,11.91964 -10.2478,21.58242 -22.8891,21.58242c-12.6413,0 -22.8891,-9.66278 -22.8891,-21.58242c0,-11.91964 10.2478,-21.58242 22.8891,-21.58242c12.6413,0 22.8891,9.66278 22.8891,21.58242z" data-paper-data="{&quot;index&quot;:null}" fill="#30b500" stroke="#2a9c00"/><path d="M592.85061,159.79185c0,11.91964 -10.2478,21.58242 -22.8891,21.58242c-12.6413,0 -22.8891,-9.66278 -22.8891,-21.58242c0,-11.91964 10.2478,-21.58242 22.8891,-21.58242c12.6413,0 22.8891,9.66278 22.8891,21.58242z" data-paper-data="{&quot;index&quot;:null}" fill="#30b500" stroke="#2a9c00"/><path d="M592.85061,243.79034c0,11.91964 -10.2478,21.58242 -22.8891,21.58242c-12.6413,0 -22.8891,-9.66278 -22.8891,-21.58242c0,-11.91964 10.2478,-21.58242 22.8891,-21.58242c12.6413,0 22.8891,9.66278 22.8891,21.58242z" data-paper-data="{&quot;index&quot;:null}" fill="#30b500" stroke="#2a9c00"/><path d="M594.34761,323.36542c0,11.91964 -10.2478,21.58242 -22.8891,21.58242c-12.6413,0 -22.8891,-9.66278 -22.8891,-21.58242c0,-11.91964 10.2478,-21.58242 22.8891,-21.58242c12.6413,0 22.8891,9.66278 22.8891,21.58242z" data-paper-data="{&quot;index&quot;:null}" fill="#30b500" stroke="#2a9c00"/></g></g></svg>