<svg version="1.1" xmlns="http://www.w3.org/2000/svg" xmlns:xlink="http://www.w3.org/1999/xlink" width="689.94547" height="411.56314" viewBox="0,0,689.94547,411.56314"><g transform="translate(6.00864,41.91706)"><g data-paper-data="{&quot;isPaintingLayer&quot;:true}" fill-rule="nonzero" stroke-linecap="butt" stroke-linejoin="miter" stroke-miterlimit="10" stroke-dasharray="" stroke-dashoffset="0" style="mix-blend-mode: normal"><path d="M100.73648,180.62121v-35.37675h159.78521v35.37675z" data-paper-data="{&quot;index&quot;:null}" fill="#adadad" stroke="#868686" stroke-width="3.5"/><path d="M95.7365,175.62121v-35.37676h159.78521v35.37676z" data-paper-data="{&quot;index&quot;:null}" fill="#adadad" stroke="#868686" stroke-width="3.5"/><path d="M264.02918,255.39608v-109.97773h116.85133v109.97773z" data-paper-data="{&quot;index&quot;:null}" fill="#adadad" stroke="#868686" stroke-width="3.5"/><path d="M259.11946,250.48635v-109.97773h116.85133v109.97773z" data-paper-data="{&quot;index&quot;:null}" fill="#adadad" stroke="#868686" stroke-width="3.5"/><path d="M381.23651,298.12121v-35.37675h159.78521v35.37675z" data-paper-data="{&quot;index&quot;:null}" fill="#adadad" stroke="#868686" stroke-width="3.5"/><path d="M376.23651,293.12121v-35.37676h159.78521v35.37676z" data-paper-data="{&quot;index&quot;:null}" fill="#adadad" stroke="#868686" stroke-width="3.5"/><path d="M101.73648,297.62121v-35.37675h159.78521v35.37675z" data-paper-data="{&quot;index&quot;:null}" fill="#adadad" stroke="#868686" stroke-width="3.5"/><path d="M96.7365,292.62121v-35.37676h159.78521v35.37676z" data-paper-data="{&quot;index&quot;:null}" fill="#adadad" stroke="#868686" stroke-width="3.5"/><path d="M264.02918,367.89608v-109.97773h116.85133v109.97773z" data-paper-data="{&quot;index&quot;:null}" fill="#adadad" stroke="#868686" stroke-width="3.5"/><path d="M259.11946,362.98635v-109.97773h116.85133v109.97773z" data-paper-data="{&quot;index&quot;:null}" fill="#adadad" stroke="#868686" stroke-width="3.5"/><path d="M48.79626,280.52224l-0.00087,-6.80179l35.60936,-0.00457l0.00087,6.80179z" data-paper-data="{&quot;index&quot;:null}" fill="#d8b40c" stroke="#be9d0b" stroke-width="4"/><path d="M79.40475,283.91922l-0.00175,-13.60357l13.60357,-0.00175l0.00175,13.60357z" data-paper-data="{&quot;index&quot;:null}" fill="#d8b40c" stroke="#be9d0b" stroke-width="4"/><path d="M38.99413,283.92441l-0.00175,-13.60357l13.60357,-0.00175l0.00175,13.60357z" data-paper-data="{&quot;index&quot;:null}" fill="#d8b40c" stroke="#be9d0b" stroke-width="4"/><path d="M46.79551,278.52198l-0.00087,-6.80179l35.60936,-0.00457l0.00087,6.80179z" data-paper-data="{&quot;index&quot;:null}" fill="#d8b40c" stroke="#be9d0b" stroke-width="4"/><path d="M77.40397,281.91895l-0.00175,-13.60357l13.60357,-0.00175l0.00175,13.60357z" data-paper-data="{&quot;index&quot;:null}" fill="#d8b40c" stroke="#be9d0b" stroke-width="4"/><path d="M36.99337,281.92414l-0.00175,-13.60357l13.60357,-0.00175l0.00175,13.60357z" data-paper-data="{&quot;index&quot;:null}" fill="#d8b40c" stroke="#be9d0b" stroke-width="4"/><path d="M7.79626,280.52223l-0.00087,-6.80179l35.60936,-0.00457l0.00087,6.80179z" data-paper-data="{&quot;index&quot;:null}" fill="#d8b40c" stroke="#be9d0b" stroke-width="4"/><path d="M38.40475,283.91921l-0.00175,-13.60357l13.60357,-0.00175l0.00175,13.60357z" data-paper-data="{&quot;index&quot;:null}" fill="#d8b40c" stroke="#be9d0b" stroke-width="4"/><path d="M-2.00587,283.9244l-0.00175,-13.60357l13.60357,-0.00175l0.00175,13.60357z" data-paper-data="{&quot;index&quot;:null}" fill="#d8b40c" stroke="#be9d0b" stroke-width="4"/><path d="M5.79551,278.52198l-0.00087,-6.80179l35.60936,-0.00457l0.00087,6.80179z" data-paper-data="{&quot;index&quot;:null}" fill="#d8b40c" stroke="#be9d0b" stroke-width="4"/><path d="M36.40397,281.91894l-0.00175,-13.60357l13.60357,-0.00175l0.00175,13.60357z" data-paper-data="{&quot;index&quot;:null}" fill="#d8b40c" stroke="#be9d0b" stroke-width="4"/><path d="M-4.00663,281.92413l-0.00175,-13.60357l13.60357,-0.00175l0.00175,13.60357z" data-paper-data="{&quot;index&quot;:null}" fill="#d8b40c" stroke="#be9d0b" stroke-width="4"/><path d="M565.3355,74.7204v-109.97773h116.85133v109.97773z" data-paper-data="{&quot;index&quot;:null}" fill="#adadad" stroke="#868686" stroke-width="3.5"/><path d="M560.42578,69.81067v-109.97773h116.85133v109.97773z" data-paper-data="{&quot;index&quot;:null}" fill="#adadad" stroke="#868686" stroke-width="3.5"/></g></g></svg>