<svg version="1.1" xmlns="http://www.w3.org/2000/svg" xmlns:xlink="http://www.w3.org/1999/xlink" width="803.4264" height="587.46642" viewBox="0,0,803.4264,587.46642"><g transform="translate(81.7132,118.92425)"><g data-paper-data="{&quot;isPaintingLayer&quot;:true}" fill-rule="nonzero" stroke-width="3.5" stroke-linecap="butt" stroke-linejoin="miter" stroke-miterlimit="10" stroke-dasharray="" stroke-dashoffset="0" style="mix-blend-mode: normal"><path d="M463.54893,42.61558l-35.37658,0.10858l-0.4904,-159.78446l35.37658,-0.10858z" data-paper-data="{&quot;index&quot;:null}" fill="#adadad" stroke="#868686"/><path d="M458.5643,47.63089l-35.37659,0.10858l-0.4904,-159.78446l35.37659,-0.10858z" data-paper-data="{&quot;index&quot;:null}" fill="#adadad" stroke="#868686"/><path d="M217.30269,42.61557l-35.37658,0.10858l-0.4904,-159.78446l35.37658,-0.10858z" data-paper-data="{&quot;index&quot;:null}" fill="#adadad" stroke="#868686"/><path d="M212.31806,47.63088l-35.37659,0.10858l-0.4904,-159.78446l35.37659,-0.10858z" data-paper-data="{&quot;index&quot;:null}" fill="#adadad" stroke="#868686"/><path d="M463.54893,461.66291l-35.37658,0.10858l-0.4904,-159.78446l35.37658,-0.10858z" data-paper-data="{&quot;index&quot;:null}" fill="#adadad" stroke="#868686"/><path d="M458.5643,466.67822l-35.37659,0.10858l-0.4904,-159.78446l35.37659,-0.10858z" data-paper-data="{&quot;index&quot;:null}" fill="#adadad" stroke="#868686"/><path d="M217.30269,461.6629l-35.37658,0.10858l-0.4904,-159.78446l35.37658,-0.10858z" data-paper-data="{&quot;index&quot;:null}" fill="#adadad" stroke="#868686"/><path d="M212.31806,466.67821l-35.37659,0.10858l-0.4904,-159.78446l35.37659,-0.10858z" data-paper-data="{&quot;index&quot;:null}" fill="#adadad" stroke="#868686"/><path d="M56.3295,110.75644v-109.97773h116.85133v109.97773z" data-paper-data="{&quot;index&quot;:null}" fill="#adadad" stroke="#868686"/><path d="M51.41978,105.84671v-109.97773h116.85133v109.97773z" data-paper-data="{&quot;index&quot;:null}" fill="#adadad" stroke="#868686"/><path d="M-55.78762,110.75043v-109.97773h116.85133v109.97773z" data-paper-data="{&quot;index&quot;:null}" fill="#adadad" stroke="#868686"/><path d="M-60.69734,105.8407v-109.97773h116.85133v109.97773z" data-paper-data="{&quot;index&quot;:null}" fill="#adadad" stroke="#868686"/><path d="M577.02255,110.75644v-109.97773h116.85133v109.97773z" data-paper-data="{&quot;index&quot;:null}" fill="#adadad" stroke="#868686"/><path d="M572.11283,105.84671v-109.97773h116.85133v109.97773z" data-paper-data="{&quot;index&quot;:null}" fill="#adadad" stroke="#868686"/><path d="M464.90543,110.75043v-109.97773h116.85133v109.97773z" data-paper-data="{&quot;index&quot;:null}" fill="#adadad" stroke="#868686"/><path d="M459.99571,105.8407v-109.97773h116.85133v109.97773z" data-paper-data="{&quot;index&quot;:null}" fill="#adadad" stroke="#868686"/><path d="M56.32951,364.13102v-109.97773h116.85133v109.97773z" data-paper-data="{&quot;index&quot;:null}" fill="#adadad" stroke="#868686"/><path d="M51.41979,359.22129v-109.97773h116.85133v109.97773z" data-paper-data="{&quot;index&quot;:null}" fill="#adadad" stroke="#868686"/><path d="M-55.7876,364.13703v-109.97773h116.85133v109.97773z" data-paper-data="{&quot;index&quot;:null}" fill="#adadad" stroke="#868686"/><path d="M-60.69733,359.2273v-109.97773h116.85133v109.97773z" data-paper-data="{&quot;index&quot;:null}" fill="#adadad" stroke="#868686"/><path d="M577.02257,364.13102v-109.97773h116.85133v109.97773z" data-paper-data="{&quot;index&quot;:null}" fill="#adadad" stroke="#868686"/><path d="M572.11284,359.22129v-109.97773h116.85133v109.97773z" data-paper-data="{&quot;index&quot;:null}" fill="#adadad" stroke="#868686"/><path d="M464.90544,364.13703v-109.97773h116.85133v109.97773z" data-paper-data="{&quot;index&quot;:null}" fill="#adadad" stroke="#868686"/><path d="M459.99573,359.2273v-109.97773h116.85133v109.97773z" data-paper-data="{&quot;index&quot;:null}" fill="#adadad" stroke="#868686"/><path d="M-74.34764,245.70199v-125.78841h133.65018v125.78841z" data-paper-data="{&quot;index&quot;:null}" fill="#adadad" stroke="#868686"/><path d="M-79.9632,240.08642v-125.78841h133.65018v125.78841z" data-paper-data="{&quot;index&quot;:null}" fill="#adadad" stroke="#868686"/><path d="M586.31302,245.70199v-125.78841h133.65018v125.78841z" data-paper-data="{&quot;index&quot;:null}" fill="#adadad" stroke="#868686"/><path d="M580.69746,240.08642v-125.78841h133.65018v125.78841z" data-paper-data="{&quot;index&quot;:null}" fill="#adadad" stroke="#868686"/></g></g></svg>